<svg width="18" height="13" viewBox="0 0 18 13" fill="none" xmlns="http://www.w3.org/2000/svg">
<path d="M17.7364 1.67391L6.73639 12.6739C6.67254 12.7378 6.59672 12.7885 6.51326 12.8231C6.4298 12.8577 6.34033 12.8755 6.24999 12.8755C6.15964 12.8755 6.07018 12.8577 5.98671 12.8231C5.90325 12.7885 5.82743 12.7378 5.76358 12.6739L0.951079 7.86141C0.822076 7.7324 0.749603 7.55744 0.749603 7.375C0.749603 7.19256 0.822076 7.0176 0.951079 6.88859C1.08008 6.75959 1.25505 6.68712 1.43749 6.68712C1.61992 6.68712 1.79489 6.75959 1.92389 6.88859L6.24999 11.2155L16.7636 0.701094C16.8926 0.572091 17.0676 0.499619 17.25 0.499619C17.4324 0.499619 17.6074 0.572091 17.7364 0.701094C17.8654 0.830097 17.9379 1.00506 17.9379 1.1875C17.9379 1.36994 17.8654 1.5449 17.7364 1.67391Z" fill="#9E78CF"/>
</svg>
